<svg xmlns="http://www.w3.org/2000/svg" viewBox="0 0 512 512" fill="#242c37"><path d="M195.334 223.333h-50v-62.666C145.334 99.645 194.979 50 256 50c61.022 0 110.667 49.645 110.667 110.667v62.666h-50v-62.666C316.667 127.215 289.452 100 256 100c-33.451 0-60.666 27.215-60.666 60.667v62.666zm208.666 30V462H108V253.333h296zM283 341c0-14.912-12.088-27-27-27s-27 12.088-27 27c0 7.811 3.317 14.844 8.619 19.773a21.562 21.562 0 0 1 6.881 15.785V399.5h23v-22.941a21.55 21.55 0 0 1 6.881-15.785C279.683 355.844 283 348.811 283 341z"/></svg>