<svg xmlns="http://www.w3.org/2000/svg" viewBox="342 -313.1 2304 1466"><path d="M1779 436.9c0 138.7-29 262.2-87 370.5s-140.7 193-248 254-230.3 91.5-369 91.5c-99.3 0-194.3-19.3-285-58s-168.7-90.7-234-156-117.3-143.3-156-234-58-185.7-58-285 19.3-194.3 58-285 90.7-168.7 156-234 143.3-117.3 234-156 185.7-58 285-58c190.7 0 354.3 64 491 192l-199 191c-78-75.3-175.3-113-292-113-82 0-157.8 20.7-227.5 62s-124.8 97.5-165.5 168.5-61 148.5-61 232.5 20.3 161.5 61 232.5 95.8 127.2 165.5 168.5 145.5 62 227.5 62c55.3 0 106.2-7.7 152.5-23s84.5-34.5 114.5-57.5 56.2-49.2 78.5-78.5 38.7-57 49-83 17.5-50.7 21.5-74h-416v-252h692c8 42 12 82.7 12 122zm867-122v210h-209v209h-210v-209h-209v-210h209v-209h210v209h209z"/></svg>