<svg xmlns="http://www.w3.org/2000/svg"><symbol id="facebook" viewBox="0 0 1792 1792"><path d="M1343 12v264h-157q-86 0-116 36t-30 108v189h293l-39 296h-254v759H734V905H479V609h255V391q0-186 104-288.5T1115 0q147 0 228 12z"/></symbol><symbol id="github" viewBox="0 0 1792 1792"><path d="M1664 896q0 251-146.5 451.5T1139 1625q-27 5-39.5-7t-12.5-30v-211q0-97-52-142 57-6 102.5-18t94-39 81-66.5 53-105T1386 856q0-121-79-206 37-91-8-204-28-9-81 11t-92 44l-38 24q-93-26-192-26t-192 26q-16-11-42.5-27T578 459.5 492 446q-44 113-7 204-79 85-79 206 0 85 20.5 150t52.5 105 80.5 67 94 39 102.5 18q-40 36-49 103-21 10-45 15t-57 5-65.5-21.5T484 1274q-19-32-48.5-52t-49.5-24l-20-3q-21 0-29 4.5t-5 11.5 9 14 13 12l7 5q22 10 43.5 38t31.5 51l10 23q13 38 44 61.5t67 30 69.5 7 55.5-3.5l23-4q0 38 .5 89t.5 54q0 18-13 30t-40 7q-232-77-378.5-277.5T128 896q0-209 103-385.5T510.5 231 896 128t385.5 103T1561 510.5 1664 896z"/></symbol><symbol id="google-plus" viewBox="342 -313.1 2304 1466"><path d="M1779 436.9c0 138.7-29 262.2-87 370.5s-140.7 193-248 254-230.3 91.5-369 91.5c-99.3 0-194.3-19.3-285-58s-168.7-90.7-234-156-117.3-143.3-156-234-58-185.7-58-285 19.3-194.3 58-285 90.7-168.7 156-234 143.3-117.3 234-156 185.7-58 285-58c190.7 0 354.3 64 491 192l-199 191c-78-75.3-175.3-113-292-113-82 0-157.8 20.7-227.5 62S722.7 116.4 682 187.4s-61 148.5-61 232.5 20.3 161.5 61 232.5 95.8 127.2 165.5 168.5 145.5 62 227.5 62c55.3 0 106.2-7.7 152.5-23s84.5-34.5 114.5-57.5 56.2-49.2 78.5-78.5 38.7-57 49-83 17.5-50.7 21.5-74h-416v-252h692c8 42 12 82.7 12 122zm867-122v210h-209v209h-210v-209h-209v-210h209v-209h210v209h209z"/></symbol><symbol id="linkedin" viewBox="0 0 1792 1792"><path d="M477 625v991H147V625h330zm21-306q1 73-50.5 122T312 490h-2q-82 0-132-49t-50-122q0-74 51.5-122.5T314 148t133 48.5T498 319zm1166 729v568h-329v-530q0-105-40.5-164.5T1168 862q-63 0-105.5 34.5T999 982q-11 30-11 81v553H659q2-399 2-647t-1-296l-1-48h329v144h-2q20-32 41-56t56.5-52 87-43.5T1285 602q171 0 275 113.5t104 332.5z"/></symbol><symbol id="twitter" viewBox="0 0 1792 1792"><path d="M1684 408q-67 98-162 167 1 14 1 42 0 130-38 259.5T1369.5 1125 1185 1335.5t-258 146-323 54.5q-271 0-496-145 35 4 78 4 225 0 401-138-105-2-188-64.5T285 1033q33 5 61 5 43 0 85-11-112-23-185.5-111.5T172 710v-4q68 38 146 41-66-44-105-115t-39-154q0-88 44-163 121 149 294.5 238.5T884 653q-8-38-8-74 0-134 94.5-228.5T1199 256q140 0 236 102 109-21 205-78-37 115-142 178 93-10 186-50z"/></symbol></svg>