<?xml version="1.0" encoding="UTF-8"?><!DOCTYPE svg PUBLIC "-//W3C//DTD SVG 1.1//EN" "http://www.w3.org/Graphics/SVG/1.1/DTD/svg11.dtd"><svg xmlns="http://www.w3.org/2000/svg"><symbol id="bell" viewBox="0 0 92 92"><path d="M84 71.5c-6.7 0-9.3-3.9-9.3-28.4 0-19.2-8.7-31.2-23.7-33V3.9c0-2.2-1.8-4-4-4s-4 1.8-4 4v6C27 11.2 17.7 23.4 17.7 43c0 24.5-2.9 28.4-9.7 28.4-2.1.1-4 1.6-4 3.8C4 77.5 5.8 79 8 79h26c.3 3 1.2 6.7 3.6 9.3 2.1 2.3 4.9 3.6 8.2 3.6 3.3 0 6.1-1.4 8.2-3.6 2.5-2.7 3.5-6.3 3.9-9.3H84c2.2 0 4-1.5 4-3.8 0-2.2-1.8-3.7-4-3.7zM48.2 82.9c-.4.4-1 1-2.4 1-1.3 0-1.9-.6-2.3-1-.7-.9-1.2-1.9-1.4-3.9H50c-.4 2-.9 3-1.8 3.9zM46.6 71H21.8c3.7-7 3.7-17.9 3.7-28.1 0-16.3 7.1-24.9 19.9-24.9h1.1c12.8 0 19.9 8.6 19.9 24.9 0 10.2 0 21.1 3.7 28.1H46.6zm14.2-35.5c.1 1.9-1.4 3.6-3.3 3.7h-.2c-1.8 0-3.4-1.4-3.5-3.3-.3-4.5-3.8-6.1-4.2-6.3-1.8-.8-2.6-2.8-1.9-4.6.7-1.8 2.7-2.6 4.5-1.9.4.2 8.1 3.4 8.6 12.4z"/></symbol><symbol id="cart" viewBox="0 0 92 92"><path d="M91.8 27.3L81.1 61c-.8 2.4-2.9 4-5.4 4H34.4c-2.4 0-4.7-1.5-5.5-3.7L13.1 19H4c-2.2 0-4-1.8-4-4s1.8-4 4-4h11.9c1.7 0 3.2 1.1 3.8 2.7L36 57h38l8.5-27H35.4c-2.2 0-4-1.8-4-4s1.8-4 4-4H88c1.3 0 2.5.7 3.2 1.7.8 1 1 2.4.6 3.6zm-55.4 43c-1.7 0-3.4.7-4.6 1.9-1.2 1.2-1.9 2.9-1.9 4.6 0 1.7.7 3.4 1.9 4.6 1.2 1.2 2.9 1.9 4.6 1.9s3.4-.7 4.6-1.9c1.2-1.2 1.9-2.9 1.9-4.6 0-1.7-.7-3.4-1.9-4.6-1.2-1.2-2.9-1.9-4.6-1.9zm35.9 0c-1.7 0-3.4.7-4.6 1.9s-1.9 2.9-1.9 4.6c0 1.7.7 3.4 1.9 4.6 1.2 1.2 2.9 1.9 4.6 1.9 1.7 0 3.4-.7 4.6-1.9 1.2-1.2 1.9-2.9 1.9-4.6 0-1.7-.7-3.4-1.9-4.6s-2.9-1.9-4.6-1.9z"/></symbol><symbol id="home" viewBox="0 0 92 92"><path d="M88 49c-1 0-2-.4-2.8-1.1L46 9.6 6.8 47.9c-1.6 1.5-4.1 1.5-5.7-.1-1.5-1.6-1.5-4.1.1-5.7l42-41c1.6-1.5 4-1.5 5.6 0l42 41c1.6 1.5 1.6 4.1.1 5.7-.8.8-1.9 1.2-2.9 1.2zm-8.8 39V48.9c0-2.2-1.8-4-4-4s-4 1.8-4 4V84H58.7V62.6c0-2.9-2.4-5.3-5.3-5.3H38.6c-2.9 0-5.3 2.4-5.3 5.3V84H20.8V48.9c0-2.2-1.8-4-4-4s-4 1.8-4 4V88c0 2.2 1.8 4 4 4h20.5c2.2 0 4-1.8 4-4V65.3h9.5V88c0 2.2 1.8 4 4 4h20.5c2.2 0 3.9-1.8 3.9-4z"/></symbol><symbol id="search" viewBox="0 0 92 92"><path d="M57.8 2.2c-17.1 0-31 14.1-31 31.3 0 7.3 2.5 13.9 6.6 19.3L4 82.6c-1.7 1.8-1.7 4.6 0 6.3.9.9 2 1.3 3.1 1.3 1.2 0 2.3-.4 3.2-1.3l29.4-29.8c5.1 3.7 11.3 5.8 18 5.8 17.1 0 31-14.1 31-31.3S74.9 2.2 57.8 2.2zm0 54.8c-12.7 0-23-10.5-23-23.4 0-12.9 10.3-23.4 23-23.4s23 10.5 23 23.4c0 12.9-10.3 23.4-23 23.4zm15.5-23c-.2 1.7-1.7 3-3.4 3h-.5c-1.9-.3-3.2-2-3-3.9.7-5.2-5.1-7.9-5.4-8-1.7-.8-2.5-2.9-1.7-4.6s2.8-2.5 4.6-1.8c.4.1 10.8 4.9 9.4 15.3zM66 41.6c.7.7 1.2 1.8 1.2 2.8 0 1.1-.4 2.1-1.2 2.8-.7.7-1.8 1.2-2.8 1.2-1 0-2.1-.4-2.8-1.2-.7-.7-1.2-1.8-1.2-2.8 0-1 .4-2.1 1.2-2.8.7-.7 1.8-1.2 2.8-1.2 1 0 2 .4 2.8 1.2z"/></symbol><symbol id="user" viewBox="0 0 92 92"><path d="M46 57.1c14.8 0 26.9-12.1 26.9-27C72.9 15.1 60.8 3 46 3S19.1 15.1 19.1 30c0 15 12.1 27.1 26.9 27.1zM46 11c10.4 0 18.9 8.5 18.9 19S56.4 49 46 49s-18.9-8.5-18.9-19S35.6 11 46 11zm12.5 48.7c-1.3-.4-2.8-.1-3.8.8L46 67.9l-8.7-7.4c-1.1-.9-2.5-1.2-3.8-.8C27.9 61.5 0 71.1 0 85c0 2.2 1.8 4 4 4h84c2.2 0 4-1.8 4-4 0-13.9-27.9-23.5-33.5-25.3zM10.1 81c4.4-4.7 15-9.9 23.8-12.9l9.5 8.1c1.5 1.3 3.7 1.3 5.2 0l9.5-8.1c8.8 3.1 19.4 8.3 23.8 12.9H10.1z"/></symbol></svg>