<svg xmlns="http://www.w3.org/2000/svg" width="92" height="92" viewBox="0 0 92 92"><path d="M88 49c-1 0-2-.4-2.8-1.1l-39.2-38.3-39.2 38.3c-1.6 1.5-4.1 1.5-5.7-.1-1.5-1.6-1.5-4.1.1-5.7l42-41c1.6-1.5 4-1.5 5.6 0l42 41c1.6 1.5 1.6 4.1.1 5.7-.8.8-1.9 1.2-2.9 1.2zm-8.8 39v-39.1c0-2.2-1.8-4-4-4s-4 1.8-4 4v35.1h-12.5v-21.4c0-2.9-2.4-5.3-5.3-5.3h-14.8c-2.9 0-5.3 2.4-5.3 5.3v21.4h-12.5v-35.1c0-2.2-1.8-4-4-4s-4 1.8-4 4v39.1c0 2.2 1.8 4 4 4h20.5c2.2 0 4-1.8 4-4v-22.7h9.5v22.7c0 2.2 1.8 4 4 4h20.5c2.2 0 3.9-1.8 3.9-4z"/></svg>
