<svg xmlns="http://www.w3.org/2000/svg" width="92" height="92" viewBox="0 0 92 92"><path d="M57.8 2.2c-17.1 0-31 14.1-31 31.3 0 7.3 2.5 13.9 6.6 19.3l-29.4 29.8c-1.7 1.8-1.7 4.6 0 6.3.9.9 2 1.3 3.1 1.3 1.2 0 2.3-.4 3.2-1.3l29.4-29.8c5.1 3.7 11.3 5.8 18 5.8 17.1 0 31-14.1 31-31.3s-13.8-31.4-30.9-31.4zm0 54.8c-12.7 0-23-10.5-23-23.4 0-12.9 10.3-23.4 23-23.4s23 10.5 23 23.4c0 12.9-10.3 23.4-23 23.4zm15.5-23c-.2 1.7-1.7 3-3.4 3h-.5c-1.9-.3-3.2-2-3-3.9.7-5.2-5.1-7.9-5.4-8-1.7-.8-2.5-2.9-1.7-4.6s2.8-2.5 4.6-1.8c.4.1 10.8 4.9 9.4 15.3zm-7.3 7.6c.7.7 1.2 1.8 1.2 2.8 0 1.1-.4 2.1-1.2 2.8-.7.7-1.8 1.2-2.8 1.2-1 0-2.1-.4-2.8-1.2-.7-.7-1.2-1.8-1.2-2.8 0-1 .4-2.1 1.2-2.8.7-.7 1.8-1.2 2.8-1.2 1 0 2 .4 2.8 1.2z"/></svg>