<svg xmlns="http://www.w3.org/2000/svg" width="92" height="92" viewBox="0 0 92 92"><path d="M46 57.1c14.8 0 26.9-12.1 26.9-27 0-15-12.1-27.1-26.9-27.1s-26.9 12.1-26.9 27c0 15 12.1 27.1 26.9 27.1zm0-46.1c10.4 0 18.9 8.5 18.9 19s-8.5 19-18.9 19-18.9-8.5-18.9-19 8.5-19 18.9-19zm12.5 48.7c-1.3-.4-2.8-.1-3.8.8l-8.7 7.4-8.7-7.4c-1.1-.9-2.5-1.2-3.8-.8-5.6 1.8-33.5 11.4-33.5 25.3 0 2.2 1.8 4 4 4h84c2.2 0 4-1.8 4-4 0-13.9-27.9-23.5-33.5-25.3zm-48.4 21.3c4.4-4.7 15-9.9 23.8-12.9l9.5 8.1c1.5 1.3 3.7 1.3 5.2 0l9.5-8.1c8.8 3.1 19.4 8.3 23.8 12.9h-71.8z"/></svg>